<mxfile host="app.diagrams.net" modified="2021-06-28T12:58:33.381Z" agent="5.0 (Macintosh; Intel Mac OS X 10_15_7) AppleWebKit/537.36 (KHTML, like Gecko) Chrome/91.0.4472.114 Safari/537.36" etag="kpoa0BBeGOo4pQzpHUqu" version="14.8.0" type="github">
  <diagram id="3m61YdiY0EfEbh-8TnGi" name="Page-1">
    <mxGraphModel dx="1186" dy="501" grid="1" gridSize="10" guides="1" tooltips="1" connect="1" arrows="1" fold="1" page="1" pageScale="1" pageWidth="827" pageHeight="1169" math="0" shadow="0">
      <root>
        <mxCell id="0" />
        <mxCell id="1" parent="0" />
        <mxCell id="sDyzO4eiScLbTM0ukueI-2" style="edgeStyle=orthogonalEdgeStyle;rounded=0;orthogonalLoop=1;jettySize=auto;html=1;entryX=0;entryY=0.5;entryDx=0;entryDy=0;" edge="1" parent="1" source="ONcSCaXRlNu7lQGQluO4-1" target="sDyzO4eiScLbTM0ukueI-1">
          <mxGeometry relative="1" as="geometry" />
        </mxCell>
        <mxCell id="ONcSCaXRlNu7lQGQluO4-1" value="" style="rounded=0;whiteSpace=wrap;html=1;" parent="1" vertex="1">
          <mxGeometry x="80" y="40" width="120" height="60" as="geometry" />
        </mxCell>
        <mxCell id="sDyzO4eiScLbTM0ukueI-1" value="" style="rounded=0;whiteSpace=wrap;html=1;" vertex="1" parent="1">
          <mxGeometry x="280" y="40" width="120" height="60" as="geometry" />
        </mxCell>
      </root>
    </mxGraphModel>
  </diagram>
</mxfile>
